<?xml version="1.0" encoding="UTF-8" standalone="no"?>
<svg
   width="87.864494"
   height="96"
   version="1.1"
   id="svg1"
   sodipodi:docname="github.svg"
   inkscape:version="1.4 (e7c3feb100, 2024-10-09)"
   xmlns:inkscape="http://www.inkscape.org/namespaces/inkscape"
   xmlns:sodipodi="http://sodipodi.sourceforge.net/DTD/sodipodi-0.dtd"
   xmlns="http://www.w3.org/2000/svg"
   xmlns:svg="http://www.w3.org/2000/svg">
  <defs
     id="defs1" />
  <sodipodi:namedview
     id="namedview1"
     pagecolor="#ffffff"
     bordercolor="#000000"
     borderopacity="0.25"
     inkscape:showpageshadow="2"
     inkscape:pageopacity="0.0"
     inkscape:pagecheckerboard="0"
     inkscape:deskcolor="#d1d1d1"
     inkscape:zoom="6.4007895"
     inkscape:cx="39.292028"
     inkscape:cy="57.571023"
     inkscape:window-width="1920"
     inkscape:window-height="1080"
     inkscape:window-x="0"
     inkscape:window-y="0"
     inkscape:window-maximized="1"
     inkscape:current-layer="svg1"
     showguides="true">
    <sodipodi:guide
       position="87.864496,29.504564"
       orientation="1,0"
       id="guide1"
       inkscape:locked="false" />
    <sodipodi:guide
       position="20.153764,0"
       orientation="0,-1"
       id="guide2"
       inkscape:locked="false" />
  </sodipodi:namedview>
  <path
     fill-rule="evenodd"
     clip-rule="evenodd"
     d="M 43.9686,4.8000201 C 19.6551,4.8000201 0,24.60002 0,49.09532 c 0,19.5804 12.5937,36.1548 30.0645,42.021 2.1843,0.441 2.9844,-0.9531 2.9844,-2.1258 0,-1.0269 -0.072,-4.5468 -0.072,-8.2143 -12.231,2.6406 -14.778,-5.2803 -14.778,-5.2803 -1.9656,-5.1336 -4.878,-6.453 -4.878,-6.453 -4.0031999,-2.7135 0.2916,-2.7135 0.2916,-2.7135 4.4406,0.2934 6.7707,4.5468 6.7707,4.5468 3.9303,6.7464 10.2636,4.8402 12.8115,3.6666 0.3636,-2.8602 1.5291,-4.8402 2.7666,-5.94 -9.7551,-1.0269 -20.0187,-4.8402 -20.0187,-21.8547 0,-4.8402 1.746,-8.8002 4.5126,-11.88 -0.4365,-1.0998 -1.9656,-5.6475 0.4374,-11.7342 0,0 3.7125,-1.1736 12.0834,4.5468 a 42.273,42.273 0 0 1 10.9926,-1.467 c 3.7125,0 7.497,0.5139 10.9917,1.467 8.3718,-5.7204 12.0843,-4.5468 12.0843,-4.5468 2.403,6.0867 0.873,10.6344 0.4365,11.7342 2.8395,3.0798 4.5135,7.0398 4.5135,11.88 0,17.0145 -10.2636,20.754 -20.0916,21.8547 1.602,1.3932 2.9844,4.0329 2.9844,8.2134 0,5.94 -0.072,10.7073 -0.072,12.1734 0,1.1736 0.801,2.5677 2.9844,2.1276 17.4708,-5.868 30.0645,-22.4415 30.0645,-42.0219 C 87.9363,24.60002 68.2092,4.8000201 43.9686,4.8000201 Z"
     fill="#24292f"
     id="path1"
     style="fill:#000000;stroke-width:0.9" />
</svg>
