<?xml version="1.0" encoding="UTF-8" standalone="no"?>
<svg
   width="118.8036"
   height="132"
   version="1.1"
   id="svg9"
   sodipodi:docname="instagram.svg"
   inkscape:version="1.4 (e7c3feb100, 2024-10-09)"
   xmlns:inkscape="http://www.inkscape.org/namespaces/inkscape"
   xmlns:sodipodi="http://sodipodi.sourceforge.net/DTD/sodipodi-0.dtd"
   xmlns:xlink="http://www.w3.org/1999/xlink"
   xmlns="http://www.w3.org/2000/svg"
   xmlns:svg="http://www.w3.org/2000/svg">
  <sodipodi:namedview
     id="namedview9"
     pagecolor="#ffffff"
     bordercolor="#000000"
     borderopacity="0.25"
     inkscape:showpageshadow="2"
     inkscape:pageopacity="0.0"
     inkscape:pagecheckerboard="0"
     inkscape:deskcolor="#d1d1d1"
     inkscape:zoom="4.6551197"
     inkscape:cx="44.896805"
     inkscape:cy="70.137831"
     inkscape:window-width="1920"
     inkscape:window-height="1080"
     inkscape:window-x="0"
     inkscape:window-y="0"
     inkscape:window-maximized="1"
     inkscape:current-layer="svg9"
     showguides="true">
    <sodipodi:guide
       position="118.8036,28.481014"
       orientation="1,0"
       id="guide1"
       inkscape:locked="false" />
    <sodipodi:guide
       position="78.946138,0"
       orientation="0,-1"
       id="guide2"
       inkscape:locked="false" />
  </sodipodi:namedview>
  <defs
     id="defs7">
    <linearGradient
       id="b">
      <stop
         offset="0"
         stop-color="#3771c8"
         id="stop1" />
      <stop
         stop-color="#3771c8"
         offset=".128"
         id="stop2" />
      <stop
         offset="1"
         stop-color="#60f"
         stop-opacity="0"
         id="stop3" />
    </linearGradient>
    <linearGradient
       id="a">
      <stop
         offset="0"
         stop-color="#fd5"
         id="stop4" />
      <stop
         offset=".1"
         stop-color="#fd5"
         id="stop5" />
      <stop
         offset=".5"
         stop-color="#ff543e"
         id="stop6" />
      <stop
         offset="1"
         stop-color="#c837ab"
         id="stop7" />
    </linearGradient>
    <radialGradient
       id="c"
       cx="158.429"
       cy="578.08801"
       r="65"
       xlink:href="#a"
       gradientUnits="userSpaceOnUse"
       gradientTransform="matrix(0,-1.98198,1.8439,0,-1031.402,454.004)"
       fx="158.429"
       fy="578.08801" />
    <radialGradient
       id="d"
       cx="147.694"
       cy="473.45499"
       r="65"
       xlink:href="#b"
       gradientUnits="userSpaceOnUse"
       gradientTransform="matrix(0.17394,0.86872,-3.5818,0.71718,1648.348,-458.493)"
       fx="147.694"
       fy="473.45499" />
  </defs>
  <path
     fill="#fff"
     d="M 59.407367,6.6 C 43.27466,6.6 41.250028,6.6705333 34.913771,6.9588757 28.589889,7.2484504 24.273313,8.2495874 20.496308,9.7184996 16.589363,11.235675 13.275202,13.265174 9.973418,16.568062 6.669158,19.869713 4.639576,23.183738 3.1173885,27.089287 1.6447035,30.867375 0.6422875,35.185013 0.3576522,41.506162 0.074252,47.842163 0,49.867949 0,66 c 0,16.132051 0.071777,18.150413 0.3588888,24.486413 0.2908247,6.32362 1.2920024,10.640017 2.7597378,14.416867 1.5184744,3.9068 3.5480574,7.22082 6.8510774,10.52247 3.300548,3.30413 6.614708,5.33858 10.519179,6.85575 3.779478,1.46892 8.097292,2.47005 14.419938,2.75963 6.336258,0.28834 8.359652,0.35887 24.49112,0.35887 16.133946,0 18.15239,-0.0706 24.488649,-0.35887 6.323882,-0.28958 10.64541,-1.29071 14.42489,-2.75963 3.9057,-1.51717 7.21491,-3.55162 10.51547,-6.85575 3.30426,-3.30165 5.33384,-6.61567 6.85602,-10.52122 1.46031,-3.7781 2.46272,-8.09573 2.75975,-14.416879 0.28462,-6.336 0.35888,-8.3556 0.35888,-24.487651 0,-16.132052 -0.0743,-18.156602 -0.35888,-24.492602 -0.29703,-6.323624 -1.29944,-10.640024 -2.75975,-14.416875 -1.52218,-3.906786 -3.55176,-7.220811 -6.85603,-10.522461 C 105.52468,13.263937 102.22043,11.234437 98.30976,9.7184996 94.52286,8.2495874 90.203805,7.2484504 83.879926,6.9588757 77.543669,6.6705376 75.526461,6.6 59.388804,6.6 Z m -5.328892,10.704374 c 1.581591,-0.0024 3.346337,0 5.328892,0 15.860447,0 17.740285,0.05692 24.003527,0.34155 5.791737,0.264826 8.935118,1.23255 11.029046,2.045588 2.77212,1.076624 4.74848,2.363625 6.82633,4.442626 2.07908,2.079 3.36614,4.059 4.44528,6.831 0.81307,2.091375 1.78207,5.234625 2.04568,11.026125 0.28463,6.26175 0.3465,8.14275 0.3465,23.995124 0,15.852376 -0.0619,17.733376 -0.3465,23.995126 -0.26484,5.7915 -1.23261,8.934754 -2.04568,11.026117 -1.07667,2.77201 -2.3662,4.74582 -4.44528,6.82359 -2.07908,2.07899 -4.05298,3.366 -6.82633,4.44262 -2.091453,0.81674 -5.237309,1.78199 -11.029046,2.04683 -6.262004,0.28461 -8.14308,0.34649 -24.003527,0.34649 -15.861682,0 -17.741521,-0.0618 -24.003526,-0.34649 -5.791737,-0.26731 -8.935115,-1.23503 -11.030287,-2.04807 -2.772113,-1.07663 -4.752194,-2.36363 -6.831278,-4.44263 -2.079085,-2.079 -3.366137,-4.05404 -4.445281,-6.82728 -0.813071,-2.091382 -1.782074,-5.234628 -2.045672,-11.026128 -0.284635,-6.261749 -0.341563,-8.14275 -0.341563,-24.005025 0,-15.862275 0.05692,-17.733375 0.341563,-23.995124 0.264837,-5.791501 1.232601,-8.934751 2.045672,-11.028601 1.076668,-2.772 2.366196,-4.752 4.445281,-6.831 2.079084,-2.079 4.059165,-3.366 6.831278,-4.4451 2.093936,-0.81675 5.23855,-1.782 11.030287,-2.048062 5.479873,-0.2475 7.603509,-0.321751 18.674634,-0.334126 z m 37.037408,9.862876 c -3.935409,0 -7.128289,3.189038 -7.128289,7.125526 0,3.935248 3.19288,7.127998 7.128289,7.127998 3.935407,0 7.128287,-3.19275 7.128287,-7.127998 0,-3.93525 -3.19288,-7.128 -7.128287,-7.128 z m -31.708516,8.328375 c -16.846773,0 -30.505616,13.658288 -30.505616,30.504375 0,16.846088 13.658843,30.498188 30.505616,30.498188 16.846775,0 30.500667,-13.6521 30.500667,-30.498188 0,-16.846087 -13.655131,-30.504375 -30.501904,-30.504375 z m 0,10.704375 c 10.934996,0 19.800807,8.864213 19.800807,19.8 0,10.93455 -8.865811,19.8 -19.800807,19.8 -10.936232,0 -19.800805,-8.86545 -19.800805,-19.8 0,-10.935787 8.864573,-19.8 19.800805,-19.8 z"
     id="path9"
     style="fill:#000000;stroke-width:1.23753" />
</svg>
