<?xml version="1.0" encoding="UTF-8"?>
<svg id="Layer_1" data-name="Layer 1" xmlns="http://www.w3.org/2000/svg" viewBox="0 0 785.57 1072.89">
  <defs>
    <style>
      .cls-1 {
        fill: #fff;
      }

      .cls-2, .cls-3 {
        fill: #ef4625;
      }

      .cls-2, .cls-4 {
        stroke-width: 45px;
      }

      .cls-2, .cls-4, .cls-5 {
        stroke: #231f20;
        stroke-miterlimit: 10;
      }

      .cls-4 {
        fill: #7f5723;
        stroke-linecap: square;
      }

      .cls-5 {
        fill: none;
        stroke-linecap: round;
        stroke-width: 36px;
      }
    </style>
  </defs>
  <path class="cls-2" d="M679.04,399.56c-102.99-71.34-281.93-152.3-415.75-146.13-98.49,4.54-159.74,21.66-194.76,116.43-35.02,94.77-20.69,164.45-34.58,266.36-29.01,212.92-14.47,325.56,182.16,386.57,218.88,67.92,288.91,10.86,389.75-175.26,49-90.43,106.9-128.28,141.92-223.05,35.02-94.77,8.98-171.08-68.74-224.92Z"/>
  <path class="cls-4" d="M538.22,485.62c63.49-22.3,103.89-69.57,110.98-132.6,4.6-40.85-15.83-89.87-62.11-102.58-14.91-4.09-21.73-12.57-22.66-21-.81-7.36,3.7-16.67,17.87-22.21,20.35-7.96,43.1-19.15,55.12-51.68,19.86-53.75-14.58-104.81-70.96-125.64-53.22-19.67-182.77-9.44-240.6,147.07-35.25,95.42-28.49,175.53,1.98,237.83"/>
  <rect class="cls-3" x="200.02" y="443.41" width="449.69" height="58.21" transform="translate(184.56 -115.73) rotate(19.74)"/>
  <path class="cls-5" d="M255.49,358.42c83.6,67.57,253.25,120.71,385.69,136.09"/>
  <path class="cls-1" d="M189.44,817.8c-6.27,17.59-25.78,29.51-45.35,25.4-18.61-3.91-32.3-21.72-26.11-39.32,6.2-17.65,25.93-29.46,48.79-24.18,19.43,4.49,29.36,19.39,22.68,38.11Z"/>
  <path class="cls-1" d="M219.16,525.68c2.64,35.68,1.01,38.78-.42,71.68-1.53,35.23-5.82,86.06-14.04,109.79-10.17,29.34-27.46,41.32-50.98,35.19-18.49-4.82-25.91-26.26-19.78-55.95,10.34-50.17,12.12-74.3,13.83-98.22,1.53-21.45-3.06-39.06.42-77.3,2.96-32.43,28.41-42.58,51.66-36.83,21.3,5.26,17.68,29.56,19.32,51.64Z"/>
</svg>